REM DIRINDEX 1\2,1\3
REM DIRNAME cjc116,folder01,folder02
TITLE ""
FILE "Disc1Track07.mp3" MP3
  TRACK 01 AUDIO
    TITLE "0:"
    INDEX 01 00:00:00
  TRACK 02 AUDIO
    TITLE "3:cjc116_0821"
    INDEX 01 00:00:09
  TRACK 03 AUDIO
    TITLE "0:"
    INDEX 01 00:01:50
  TRACK 04 AUDIO
    TITLE "2:cjc116_0822"
    INDEX 01 00:02:28
  TRACK 05 AUDIO
    TITLE "0:"
    INDEX 01 00:03:35
  TRACK 06 AUDIO
    TITLE "2:cjc116_0823"
    INDEX 01 00:03:59
  TRACK 07 AUDIO
    TITLE "0:"
    INDEX 01 00:06:02
  TRACK 08 AUDIO
    TITLE "2:cjc116_0824"
    INDEX 01 00:06:33
  TRACK 09 AUDIO
    TITLE "0:"
    INDEX 01 00:09:00
  TRACK 10 AUDIO
    TITLE "2:cjc116_0825"
    INDEX 01 00:09:44
  TRACK 11 AUDIO
    TITLE "0:"
    INDEX 01 00:10:51
  TRACK 12 AUDIO
    TITLE "2:cjc116_0826"
    INDEX 01 00:10:68
  TRACK 13 AUDIO
    TITLE "0:"
    INDEX 01 00:12:24
  TRACK 14 AUDIO
    TITLE "2:cjc116_0827"
    INDEX 01 00:12:58
  TRACK 15 AUDIO
    TITLE "0:"
    INDEX 01 00:14:31
  TRACK 16 AUDIO
    TITLE "2:cjc116_0828"
    INDEX 01 00:14:72
  TRACK 17 AUDIO
    TITLE "0:"
    INDEX 01 00:16:20
  TRACK 18 AUDIO
    TITLE "2:cjc116_0829"
    INDEX 01 00:16:30
  TRACK 19 AUDIO
    TITLE "0:"
    INDEX 01 00:17:72
  TRACK 20 AUDIO
    TITLE "2:cjc116_0830"
    INDEX 01 00:18:35
  TRACK 21 AUDIO
    TITLE "0:"
    INDEX 01 00:20:22
  TRACK 22 AUDIO
    TITLE "2:cjc116_0831"
    INDEX 01 00:20:65
  TRACK 23 AUDIO
    TITLE "0:"
    INDEX 01 00:22:05
  TRACK 24 AUDIO
    TITLE "2:cjc116_0832"
    INDEX 01 00:22:27
  TRACK 25 AUDIO
    TITLE "0:"
    INDEX 01 00:24:00
  TRACK 26 AUDIO
    TITLE "2:cjc116_0833"
    INDEX 01 00:24:39
  TRACK 27 AUDIO
    TITLE "0:"
    INDEX 01 00:26:52
  TRACK 28 AUDIO
    TITLE "2:cjc116_0834"
    INDEX 01 00:27:20
  TRACK 29 AUDIO
    TITLE "0:"
    INDEX 01 00:28:37
  TRACK 30 AUDIO
    TITLE "2:cjc116_0835"
    INDEX 01 00:28:45
  TRACK 31 AUDIO
    TITLE "0:"
    INDEX 01 00:30:28
  TRACK 32 AUDIO
    TITLE "2:cjc116_0836"
    INDEX 01 00:30:57
  TRACK 33 AUDIO
    TITLE "0:"
    INDEX 01 00:32:33
  TRACK 34 AUDIO
    TITLE "2:cjc116_0837"
    INDEX 01 00:32:74
  TRACK 35 AUDIO
    TITLE "0:"
    INDEX 01 00:34:16
  TRACK 36 AUDIO
    TITLE "2:cjc116_0838"
    INDEX 01 00:34:32
  TRACK 37 AUDIO
    TITLE "0:"
    INDEX 01 00:35:68
  TRACK 38 AUDIO
    TITLE "2:cjc116_0839"
    INDEX 01 00:36:35
  TRACK 39 AUDIO
    TITLE "0:"
    INDEX 01 00:38:14
  TRACK 40 AUDIO
    TITLE "2:cjc116_0840"
    INDEX 01 00:38:53
  TRACK 41 AUDIO
    TITLE "0:"
    INDEX 01 00:39:58
  TRACK 42 AUDIO
    TITLE "2:cjc116_0841"
    INDEX 01 00:40:05
  TRACK 43 AUDIO
    TITLE "0:"
    INDEX 01 00:42:31
  TRACK 44 AUDIO
    TITLE "2:cjc116_0842"
    INDEX 01 00:42:65
  TRACK 45 AUDIO
    TITLE "0:"
    INDEX 01 00:45:14
  TRACK 46 AUDIO
    TITLE "2:cjc116_0843"
    INDEX 01 00:45:57
  TRACK 47 AUDIO
    TITLE "0:"
    INDEX 01 00:46:56
  TRACK 48 AUDIO
    TITLE "2:cjc116_0844"
    INDEX 01 00:47:07
  TRACK 49 AUDIO
    TITLE "0:"
    INDEX 01 00:48:53
  TRACK 50 AUDIO
    TITLE "2:cjc116_0845"
    INDEX 01 00:49:18
  TRACK 51 AUDIO
    TITLE "0:"
    INDEX 01 00:50:62
  TRACK 52 AUDIO
    TITLE "2:cjc116_0846"
    INDEX 01 00:51:18
  TRACK 53 AUDIO
    TITLE "0:"
    INDEX 01 00:52:37
  TRACK 54 AUDIO
    TITLE "2:cjc116_0847"
    INDEX 01 00:52:47
  TRACK 55 AUDIO
    TITLE "0:"
    INDEX 01 00:54:07
  TRACK 56 AUDIO
    TITLE "2:cjc116_0848"
    INDEX 01 00:54:50
  TRACK 57 AUDIO
    TITLE "0:"
    INDEX 01 00:56:18
  TRACK 58 AUDIO
    TITLE "2:cjc116_0849"
    INDEX 01 00:56:51
  TRACK 59 AUDIO
    TITLE "0:"
    INDEX 01 00:57:52
  TRACK 60 AUDIO
    TITLE "2:cjc116_0850"
    INDEX 01 00:57:74
  TRACK 61 AUDIO
    TITLE "0:"
    INDEX 01 00:59:63
  TRACK 62 AUDIO
    TITLE "2:cjc116_0851"
    INDEX 01 01:00:25
  TRACK 63 AUDIO
    TITLE "0:"
    INDEX 01 01:02:12
  TRACK 64 AUDIO
    TITLE "2:cjc116_0852"
    INDEX 01 01:02:40
  TRACK 65 AUDIO
    TITLE "0:"
    INDEX 01 01:03:45
  TRACK 66 AUDIO
    TITLE "2:cjc116_0853"
    INDEX 01 01:03:71
  TRACK 67 AUDIO
    TITLE "0:"
    INDEX 01 01:05:54
  TRACK 68 AUDIO
    TITLE "2:cjc116_0854"
    INDEX 01 01:06:12
  TRACK 69 AUDIO
    TITLE "0:"
    INDEX 01 01:07:68
  TRACK 70 AUDIO
    TITLE "2:cjc116_0855"
    INDEX 01 01:08:35
  TRACK 71 AUDIO
    TITLE "0:"
    INDEX 01 01:09:42
  TRACK 72 AUDIO
    TITLE "2:cjc116_0856"
    INDEX 01 01:09:67
  TRACK 73 AUDIO
    TITLE "0:"
    INDEX 01 01:11:39
  TRACK 74 AUDIO
    TITLE "2:cjc116_0857"
    INDEX 01 01:12:03
  TRACK 75 AUDIO
    TITLE "0:"
    INDEX 01 01:13:51
  TRACK 76 AUDIO
    TITLE "2:cjc116_0858"
    INDEX 01 01:14:19
  TRACK 77 AUDIO
    TITLE "0:"
    INDEX 01 01:15:17
  TRACK 78 AUDIO
    TITLE "2:cjc116_0859"
    INDEX 01 01:15:44
  TRACK 79 AUDIO
    TITLE "0:"
    INDEX 01 01:17:33
  TRACK 80 AUDIO
    TITLE "2:cjc116_0860"
    INDEX 01 01:17:65
  TRACK 81 AUDIO
    TITLE "0:"
    INDEX 01 01:20:18
  TRACK 82 AUDIO
    TITLE "2:cjc116_0861"
    INDEX 01 01:20:59
  TRACK 83 AUDIO
    TITLE "0:"
    INDEX 01 01:21:69
  TRACK 84 AUDIO
    TITLE "2:cjc116_0862"
    INDEX 01 01:22:11
  TRACK 85 AUDIO
    TITLE "0:"
    INDEX 01 01:23:54
  TRACK 86 AUDIO
    TITLE "2:cjc116_0863"
    INDEX 01 01:24:12
  TRACK 87 AUDIO
    TITLE "0:"
    INDEX 01 01:25:49
  TRACK 88 AUDIO
    TITLE "2:cjc116_0864"
    INDEX 01 01:26:23
  TRACK 89 AUDIO
    TITLE "0:"
    INDEX 01 01:27:22
  TRACK 90 AUDIO
    TITLE "2:cjc116_0865"
    INDEX 01 01:27:51
  TRACK 91 AUDIO
    TITLE "0:"
    INDEX 01 01:29:74
  TRACK 92 AUDIO
    TITLE "2:cjc116_0866"
    INDEX 01 01:30:38
  TRACK 93 AUDIO
    TITLE "0:"
    INDEX 01 01:32:66
  TRACK 94 AUDIO
    TITLE "2:cjc116_0867"
    INDEX 01 01:33:36
  TRACK 95 AUDIO
    TITLE "0:"
    INDEX 01 01:34:34
  TRACK 96 AUDIO
    TITLE "2:cjc116_0868"
    INDEX 01 01:34:59
  TRACK 97 AUDIO
    TITLE "0:"
    INDEX 01 01:37:07
  TRACK 98 AUDIO
    TITLE "2:cjc116_0869"
    INDEX 01 01:37:42
  TRACK 99 AUDIO
    TITLE "0:"
    INDEX 01 01:39:66
  TRACK 100 AUDIO
    TITLE "2:cjc116_0870"
    INDEX 01 01:40:35
  TRACK 101 AUDIO
    TITLE "0:"
    INDEX 01 01:41:50
  TRACK 102 AUDIO
    TITLE "2:cjc116_0871"
    INDEX 01 01:41:65
  TRACK 103 AUDIO
    TITLE "0:"
    INDEX 01 01:44:13
  TRACK 104 AUDIO
    TITLE "2:cjc116_0872"
    INDEX 01 01:44:54
  TRACK 105 AUDIO
    TITLE "0:"
    INDEX 01 01:47:33
  TRACK 106 AUDIO
    TITLE "2:cjc116_0873"
    INDEX 01 01:48:05
  TRACK 107 AUDIO
    TITLE "0:"
    INDEX 01 01:49:14
  TRACK 108 AUDIO
    TITLE "2:cjc116_0874"
    INDEX 01 01:49:41
  TRACK 109 AUDIO
    TITLE "0:"
    INDEX 01 01:51:15
  TRACK 110 AUDIO
    TITLE "2:cjc116_0875"
    INDEX 01 01:51:50
  TRACK 111 AUDIO
    TITLE "0:"
    INDEX 01 01:53:31
  TRACK 112 AUDIO
    TITLE "2:cjc116_0876"
    INDEX 01 01:54:01
  TRACK 113 AUDIO
    TITLE "0:"
    INDEX 01 01:55:16
  TRACK 114 AUDIO
    TITLE "2:cjc116_0877"
    INDEX 01 01:55:42
  TRACK 115 AUDIO
    TITLE "0:"
    INDEX 01 01:57:23
  TRACK 116 AUDIO
    TITLE "2:cjc116_0878"
    INDEX 01 01:57:64
  TRACK 117 AUDIO
    TITLE "0:"
    INDEX 01 01:59:69
  TRACK 118 AUDIO
    TITLE "2:cjc116_0879"
    INDEX 01 02:00:41
  TRACK 119 AUDIO
    TITLE "0:"
    INDEX 01 02:01:48
  TRACK 120 AUDIO
    TITLE "2:cjc116_0880"
    INDEX 01 02:01:64
  TRACK 121 AUDIO
    TITLE "0:"
    INDEX 01 02:03:32
  TRACK 122 AUDIO
    TITLE "2:cjc116_0881"
    INDEX 01 02:03:73
  TRACK 123 AUDIO
    TITLE "0:"
    INDEX 01 02:05:64
  TRACK 124 AUDIO
    TITLE "2:cjc116_0882"
    INDEX 01 02:06:36
  TRACK 125 AUDIO
    TITLE "0:"
    INDEX 01 02:07:43
  TRACK 126 AUDIO
    TITLE "2:cjc116_0883"
    INDEX 01 02:07:63
  TRACK 127 AUDIO
    TITLE "0:"
    INDEX 01 02:09:44
  TRACK 128 AUDIO
    TITLE "2:cjc116_0884"
    INDEX 01 02:09:73
  TRACK 129 AUDIO
    TITLE "0:"
    INDEX 01 02:12:11
  TRACK 130 AUDIO
    TITLE "2:cjc116_0885"
    INDEX 01 02:12:56
  TRACK 131 AUDIO
    TITLE "0:"
    INDEX 01 02:13:67
  TRACK 132 AUDIO
    TITLE "2:cjc116_0886"
    INDEX 01 02:14:16
  TRACK 133 AUDIO
    TITLE "0:"
    INDEX 01 02:15:52
  TRACK 134 AUDIO
    TITLE "2:cjc116_0887"
    INDEX 01 02:16:19
  TRACK 135 AUDIO
    TITLE "0:"
    INDEX 01 02:18:19
  TRACK 136 AUDIO
    TITLE "2:cjc116_0888"
    INDEX 01 02:18:65
  TRACK 137 AUDIO
    TITLE "0:"
    INDEX 01 02:19:68
  TRACK 138 AUDIO
    TITLE "2:cjc116_0889"
    INDEX 01 02:20:22
  TRACK 139 AUDIO
    TITLE "0:"
    INDEX 01 02:22:09
  TRACK 140 AUDIO
    TITLE "2:cjc116_0890"
    INDEX 01 02:22:35
  TRACK 141 AUDIO
    TITLE "0:"
    INDEX 01 02:24:02
  TRACK 142 AUDIO
    TITLE "2:cjc116_0891"
    INDEX 01 02:24:49
  TRACK 143 AUDIO
    TITLE "0:"
    INDEX 01 02:25:45
  TRACK 144 AUDIO
    TITLE "2:cjc116_0892"
    INDEX 01 02:25:65
  TRACK 145 AUDIO
    TITLE "0:"
    INDEX 01 02:27:38
  TRACK 146 AUDIO
    TITLE "2:cjc116_0893"
    INDEX 01 02:27:71
  TRACK 147 AUDIO
    TITLE "0:"
    INDEX 01 02:31:16
  TRACK 148 AUDIO
    TITLE "2:cjc116_0894"
    INDEX 01 02:31:55
  TRACK 149 AUDIO
    TITLE "0:"
    INDEX 01 02:32:59
  TRACK 150 AUDIO
    TITLE "2:cjc116_0895"
    INDEX 01 02:33:03
  TRACK 151 AUDIO
    TITLE "0:"
    INDEX 01 02:34:66
  TRACK 152 AUDIO
    TITLE "2:cjc116_0896"
    INDEX 01 02:35:10
  TRACK 153 AUDIO
    TITLE "0:"
    INDEX 01 02:37:27
  TRACK 154 AUDIO
    TITLE "2:cjc116_0897"
    INDEX 01 02:37:70
  TRACK 155 AUDIO
    TITLE "0:"
    INDEX 01 02:38:71
  TRACK 156 AUDIO
    TITLE "2:cjc116_0898"
    INDEX 01 02:39:20
  TRACK 157 AUDIO
    TITLE "0:"
    INDEX 01 02:41:19
  TRACK 158 AUDIO
    TITLE "2:cjc116_0899"
    INDEX 01 02:41:44
  TRACK 159 AUDIO
    TITLE "0:"
    INDEX 01 02:44:60
  TRACK 160 AUDIO
    TITLE "2:cjc116_0900"
    INDEX 01 02:45:30
  TRACK 161 AUDIO
    TITLE "0:"
    INDEX 01 02:46:35
  TRACK 162 AUDIO
    TITLE "2:cjc116_0901"
    INDEX 01 02:46:61
  TRACK 163 AUDIO
    TITLE "0:"
    INDEX 01 02:49:14
  TRACK 164 AUDIO
    TITLE "2:cjc116_0902"
    INDEX 01 02:49:44
  TRACK 165 AUDIO
    TITLE "0:"
    INDEX 01 02:51:27
  TRACK 166 AUDIO
    TITLE "2:cjc116_0903"
    INDEX 01 02:51:74
  TRACK 167 AUDIO
    TITLE "0:"
    INDEX 01 02:53:08
  TRACK 168 AUDIO
    TITLE "2:cjc116_0904"
    INDEX 01 02:53:28
  TRACK 169 AUDIO
    TITLE "0:"
    INDEX 01 02:55:38
  TRACK 170 AUDIO
    TITLE "2:cjc116_0905"
    INDEX 01 02:55:70
  TRACK 171 AUDIO
    TITLE "0:"
    INDEX 01 02:57:74
  TRACK 172 AUDIO
    TITLE "2:cjc116_0906"
    INDEX 01 02:58:42
  TRACK 173 AUDIO
    TITLE "0:"
    INDEX 01 02:59:56
  TRACK 174 AUDIO
    TITLE "2:cjc116_0907"
    INDEX 01 03:00:02
  TRACK 175 AUDIO
    TITLE "0:"
    INDEX 01 03:01:49
  TRACK 176 AUDIO
    TITLE "2:cjc116_0908"
    INDEX 01 03:02:11
  TRACK 177 AUDIO
    TITLE "0:"
    INDEX 01 03:03:57
  TRACK 178 AUDIO
    TITLE "2:cjc116_0909"
    INDEX 01 03:04:25
  TRACK 179 AUDIO
    TITLE "0:"
    INDEX 01 03:05:19
  TRACK 180 AUDIO
    TITLE "2:cjc116_0910"
    INDEX 01 03:05:39
  TRACK 181 AUDIO
    TITLE "0:"
    INDEX 01 03:07:57
  TRACK 182 AUDIO
    TITLE "2:cjc116_0911"
    INDEX 01 03:08:13
  TRACK 183 AUDIO
    TITLE "0:"
    INDEX 01 03:10:57
  TRACK 184 AUDIO
    TITLE "2:cjc116_0912"
    INDEX 01 03:11:22
  TRACK 185 AUDIO
    TITLE "0:"
    INDEX 01 03:12:31
  TRACK 186 AUDIO
    TITLE "2:cjc116_0913"
    INDEX 01 03:12:50
  TRACK 187 AUDIO
    TITLE "0:"
    INDEX 01 03:14:22
  TRACK 188 AUDIO
    TITLE "2:cjc116_0914"
    INDEX 01 03:14:53
  TRACK 189 AUDIO
    TITLE "0:"
    INDEX 01 03:16:13
  TRACK 190 AUDIO
    TITLE "2:cjc116_0915"
    INDEX 01 03:16:56
  TRACK 191 AUDIO
    TITLE "0:"
    INDEX 01 03:17:65
  TRACK 192 AUDIO
    TITLE "2:cjc116_0916"
    INDEX 01 03:18:12
  TRACK 193 AUDIO
    TITLE "0:"
    INDEX 01 03:19:51
  TRACK 194 AUDIO
    TITLE "2:cjc116_0917"
    INDEX 01 03:20:03
  TRACK 195 AUDIO
    TITLE "0:"
    INDEX 01 03:21:65
  TRACK 196 AUDIO
    TITLE "2:cjc116_0918"
    INDEX 01 03:22:33
  TRACK 197 AUDIO
    TITLE "0:"
    INDEX 01 03:23:50
  TRACK 198 AUDIO
    TITLE "2:cjc116_0919"
    INDEX 01 03:23:64
  TRACK 199 AUDIO
    TITLE "0:"
    INDEX 01 03:26:54
  TRACK 200 AUDIO
    TITLE "2:cjc116_0920"
    INDEX 01 03:27:15
  TRACK 201 AUDIO
    TITLE "0:"
    INDEX 01 03:30:17
  TRACK 202 AUDIO
    TITLE "2:cjc116_0921"
    INDEX 01 03:30:62
  TRACK 203 AUDIO
    TITLE "0:"
    INDEX 01 03:31:69
  TRACK 204 AUDIO
    TITLE "2:cjc116_0922"
    INDEX 01 03:32:16
  TRACK 205 AUDIO
    TITLE "0:"
    INDEX 01 03:33:62
  TRACK 206 AUDIO
    TITLE "2:cjc116_0923"
    INDEX 01 03:34:25
  TRACK 207 AUDIO
    TITLE "0:"
    INDEX 01 03:35:73
  TRACK 208 AUDIO
    TITLE "2:cjc116_0924"
    INDEX 01 03:36:45
  TRACK 209 AUDIO
    TITLE "0:"
    INDEX 01 03:37:35
  TRACK 210 AUDIO
    TITLE "2:cjc116_0925"
    INDEX 01 03:37:70
  TRACK 211 AUDIO
    TITLE "0:"
    INDEX 01 03:39:34
  TRACK 212 AUDIO
    TITLE "2:cjc116_0926"
    INDEX 01 03:39:65
  TRACK 213 AUDIO
    TITLE "0:"
    INDEX 01 03:41:44
  TRACK 214 AUDIO
    TITLE "2:cjc116_0927"
    INDEX 01 03:42:10
  TRACK 215 AUDIO
    TITLE "0:"
    INDEX 01 03:42:71
  TRACK 216 AUDIO
    TITLE "2:cjc116_0928"
    INDEX 01 03:43:29
  TRACK 217 AUDIO
    TITLE "0:"
    INDEX 01 03:44:48
  TRACK 218 AUDIO
    TITLE "2:cjc116_0929"
    INDEX 01 03:45:15
  TRACK 219 AUDIO
    TITLE "0:"
    INDEX 01 03:46:40
  TRACK 220 AUDIO
    TITLE "2:cjc116_0930"
    INDEX 01 03:47:04
  TRACK 221 AUDIO
    TITLE "0:"
    INDEX 01 03:47:70
  TRACK 222 AUDIO
    TITLE "2:cjc116_0931"
    INDEX 01 03:48:23
  TRACK 223 AUDIO
    TITLE "0:"
    INDEX 01 03:50:10
  TRACK 224 AUDIO
    TITLE "2:cjc116_0932"
    INDEX 01 03:50:49
  TRACK 225 AUDIO
    TITLE "0:"
    INDEX 01 03:52:46
  TRACK 226 AUDIO
    TITLE "2:cjc116_0933"
    INDEX 01 03:53:20
  TRACK 227 AUDIO
    TITLE "0:"
    INDEX 01 03:54:27
  TRACK 228 AUDIO
    TITLE "2:cjc116_0934"
    INDEX 01 03:54:47
  TRACK 229 AUDIO
    TITLE "0:"
    INDEX 01 03:56:50
  TRACK 230 AUDIO
    TITLE "2:cjc116_0935"
    INDEX 01 03:57:06
  TRACK 231 AUDIO
    TITLE "0:"
    INDEX 01 03:59:30
  TRACK 232 AUDIO
    TITLE "2:cjc116_0936"
    INDEX 01 03:59:70
  TRACK 233 AUDIO
    TITLE "0:"
    INDEX 01 04:01:02
  TRACK 234 AUDIO
    TITLE "2:cjc116_0937"
    INDEX 01 04:01:16
  TRACK 235 AUDIO
    TITLE "0:"
    INDEX 01 04:02:62
  TRACK 236 AUDIO
    TITLE "2:cjc116_0938"
    INDEX 01 04:03:26
  TRACK 237 AUDIO
    TITLE "0:"
    INDEX 01 04:04:69
  TRACK 238 AUDIO
    TITLE "2:cjc116_0939"
    INDEX 01 04:05:35
  TRACK 239 AUDIO
    TITLE "0:"
    INDEX 01 04:06:48
  TRACK 240 AUDIO
    TITLE "2:cjc116_0940"
    INDEX 01 04:06:60
  TRACK 241 AUDIO
    TITLE "0:"
    INDEX 01 04:09:33
  TRACK 242 AUDIO
    TITLE "2:cjc116_0941"
    INDEX 01 04:09:66
  TRACK 243 AUDIO
    TITLE "0:"
    INDEX 01 04:11:73
  TRACK 244 AUDIO
    TITLE "2:cjc116_0942"
    INDEX 01 04:12:41
  TRACK 245 AUDIO
    TITLE "0:"
    INDEX 01 04:13:54
  TRACK 246 AUDIO
    TITLE "2:cjc116_0943"
    INDEX 01 04:13:74
  TRACK 247 AUDIO
    TITLE "0:"
    INDEX 01 04:15:53
  TRACK 248 AUDIO
    TITLE "2:cjc116_0944"
    INDEX 01 04:16:13
  TRACK 249 AUDIO
    TITLE "0:"
    INDEX 01 04:17:54
  TRACK 250 AUDIO
    TITLE "2:cjc116_0945"
    INDEX 01 04:18:22
  TRACK 251 AUDIO
    TITLE "0:"
    INDEX 01 04:19:57
  TRACK 252 AUDIO
    TITLE "2:cjc116_0946"
    INDEX 01 04:20:01
  TRACK 253 AUDIO
    TITLE "0:"
    INDEX 01 04:21:56
  TRACK 254 AUDIO
    TITLE "2:cjc116_0947"
    INDEX 01 04:22:18
  TRACK 255 AUDIO
    TITLE "0:"
    INDEX 01 04:24:19
  TRACK 256 AUDIO
    TITLE "2:cjc116_0948"
    INDEX 01 04:24:62
  TRACK 257 AUDIO
    TITLE "0:"
    INDEX 01 04:25:71
  TRACK 258 AUDIO
    TITLE "2:cjc116_0949"
    INDEX 01 04:26:19
  TRACK 259 AUDIO
    TITLE "0:"
    INDEX 01 04:28:09
  TRACK 260 AUDIO
    TITLE "2:cjc116_0950"
    INDEX 01 04:28:50
  TRACK 261 AUDIO
    TITLE "0:"
    INDEX 01 04:30:70
  TRACK 262 AUDIO
    TITLE "2:cjc116_0951"
    INDEX 01 04:31:34
  TRACK 263 AUDIO
    TITLE "0:"
    INDEX 01 04:32:34
  TRACK 264 AUDIO
    TITLE "2:cjc116_0952"
    INDEX 01 04:32:59
  TRACK 265 AUDIO
    TITLE "0:"
    INDEX 01 04:34:03
  TRACK 266 AUDIO
    TITLE "2:cjc116_0953"
    INDEX 01 04:34:37
  TRACK 267 AUDIO
    TITLE "0:"
    INDEX 01 04:36:20
  TRACK 268 AUDIO
    TITLE "2:cjc116_0954"
    INDEX 01 04:36:63
  TRACK 269 AUDIO
    TITLE "0:"
    INDEX 01 04:38:01
  TRACK 270 AUDIO
    TITLE "2:cjc116_0955"
    INDEX 01 04:38:23
  TRACK 271 AUDIO
    TITLE "0:"
    INDEX 01 04:40:20
  TRACK 272 AUDIO
    TITLE "2:cjc116_0956"
    INDEX 01 04:40:51
  TRACK 273 AUDIO
    TITLE "0:"
    INDEX 01 04:42:67
